<svg xmlns="http://www.w3.org/2000/svg" fill="none" viewBox="0 0 36 36">
  <path fill="#000" d="M 12.825 0 L 12.825 21.33 Q 12.825 23.752 12.282 25.602 A 10.601 10.601 0 0 1 12.172 25.954 A 10.422 10.422 0 0 1 11.388 27.759 A 8.157 8.157 0 0 1 10.339 29.239 A 7.413 7.413 0 0 1 7.504 31.207 A 9.415 9.415 0 0 1 4.84 31.819 A 11.323 11.323 0 0 1 3.87 31.86 A 11.305 11.305 0 0 1 1.432 31.583 A 14.213 14.213 0 0 1 0 31.185 L 0.045 31.05 Q 0.135 30.825 0.315 30.825 A 1.373 1.373 0 0 1 0.523 30.842 Q 0.622 30.857 0.731 30.886 A 2.615 2.615 0 0 1 0.832 30.915 Q 1.034 30.977 1.293 31.049 A 30.592 30.592 0 0 0 1.541 31.118 Q 1.958 31.23 2.52 31.32 A 6.476 6.476 0 0 0 3.014 31.378 Q 3.402 31.41 3.87 31.41 A 10.079 10.079 0 0 0 5.911 31.211 A 8.35 8.35 0 0 0 7.346 30.78 Q 8.91 30.15 10.001 28.89 A 7.898 7.898 0 0 0 11.123 27.172 A 10.386 10.386 0 0 0 11.689 25.74 A 12.231 12.231 0 0 0 12.131 23.727 Q 12.266 22.749 12.283 21.647 A 20.8 20.8 0 0 0 12.285 21.33 L 12.285 0 L 12.825 0 Z"/>
  <!-- <path fill="url(#gradient)" d="M18 28a7.63 7.63 0 0 1-5-2c-1.4 2.1-.35 4.35.6 5.55.14.17.41.07.47-.15.44-1.8 2.93-1.22 2.93.6 0 2.28.87 3.4 1.72 3.81.34.16.59-.2.49-.56-.31-1.05-.29-2.46 1.29-3.25 3-1.5 3.17-4.83 2.5-6-.67.67-2.6 2-5 2Z"/> -->
  <defs>
    <linearGradient id="gradient" x1="16" x2="16" y1="32" y2="24" gradientUnits="userSpaceOnUse">
      <stop stop-color="#000"/>
      <stop offset="1" stop-color="#000" stop-opacity="0"/>
    </linearGradient>
  </defs>
	<style>
    @media (prefers-color-scheme:dark){:root{filter:invert(100%)}}
  </style>
</svg>
